<?xml version="1.0" encoding="UTF-8" standalone="no"?>
<!-- Created with Inkscape (http://www.inkscape.org/) -->

<svg
   width="752"
   height="752"
   viewBox="0 0 198.96666 198.96667"
   version="1.1"
   id="svg5"
   inkscape:version="1.1.2 (b8e25be833, 2022-02-05)"
   sodipodi:docname="mask-icon.svg"
   xmlns:inkscape="http://www.inkscape.org/namespaces/inkscape"
   xmlns:sodipodi="http://sodipodi.sourceforge.net/DTD/sodipodi-0.dtd"
   xmlns="http://www.w3.org/2000/svg"
   xmlns:svg="http://www.w3.org/2000/svg">
  <sodipodi:namedview
     id="namedview7"
     pagecolor="#ffffff"
     bordercolor="#666666"
     borderopacity="1.0"
     inkscape:pageshadow="2"
     inkscape:pageopacity="0.0"
     inkscape:pagecheckerboard="0"
     inkscape:document-units="px"
     showgrid="false"
     units="px"
     width="752px"
     inkscape:zoom="0.5499273"
     inkscape:cx="352.7739"
     inkscape:cy="281.85544"
     inkscape:window-width="1920"
     inkscape:window-height="1137"
     inkscape:window-x="-8"
     inkscape:window-y="-8"
     inkscape:window-maximized="1"
     inkscape:current-layer="layer1" />
  <defs
     id="defs2" />
  <g
     inkscape:label="Layer 1"
     inkscape:groupmode="layer"
     id="layer1"
     style="display:inline">
    <path
       style="fill:#000000;stroke-width:0.264583"
       d="m 114.68491,143.63395 c -4.04704,-0.63788 -4.78471,-4.57062 -1.75378,-9.34989 0.79108,-1.24741 0.79601,-1.27482 0.19934,-1.10888 -7.61847,2.11873 -16.046049,3.61901 -24.953457,4.44225 -4.873939,0.45045 -19.538804,0.45279 -24.341666,0.004 -11.313782,-1.05746 -20.860054,-2.98582 -29.788648,-6.01732 -18.342028,-6.22764 -30.1820385,-15.8025 -33.35199978,-26.9713 -0.8442322,-2.97451 -0.8442322,-7.344249 0,-10.318749 4.81583528,-16.9679 29.45339278,-29.8401 63.14064778,-32.98878 4.802862,-0.44891 19.467727,-0.44658 24.341666,0.004 8.907408,0.82324 17.334987,2.32352 24.953457,4.44225 0.59667,0.16594 0.59174,0.13853 -0.19934,-1.10888 -2.582,-4.07139 -2.4467,-7.578 0.34518,-8.94609 1.50286,-0.73644 4.67686,-0.64435 7.70904,0.22365 4.65406,1.3323 11.20226,5.06576 15.46308,8.81629 1.14393,1.00693 8.82336,5.31695 31.98107,17.94912 16.7616,9.1432 30.47564,16.68871 30.47564,16.76781 0,0.0791 -13.71404,7.624609 -30.47564,16.767799 -23.15771,12.63218 -30.83714,16.94219 -31.98107,17.94912 -5.61376,4.94143 -13.8924,9.08203 -19.03496,9.52039 -0.80036,0.0682 -2.02821,0.0337 -2.72856,-0.0767 z"
       id="path1632" />
  </g>
</svg>
